# xmcd CD database file
#
# Track frame offsets:
#	150
#	11041
#	24507
#	38112
#	50270
#	64656
#	78328
#	91563
#	105638
#	118452
#	131690
#	145987
#	159623
#	171837
#	188983
#
# Disc length: 2688 seconds
#
# Revision: 0
# Processed by: cddbd v1.5.1PL0 Copyright (c) Steve Scherf et al.
# Submitted via: CDex 1.50Beta7
#
DISCID=c60a7e0f
DTITLE=Varios - Los 3 Señores De La Salsa Cd 1
DYEAR=1900
DGENRE=Salsa
TTITLE0=Wabble Cha - Cheo Feliciano
TTITLE1=El Negro Bembon - Ismael Rivera
TTITLE2=Punto Final - Pete "Conde" Rodriguez
TTITLE3=Cita A Las Seis - Cheo Feliciano
TTITLE4=Monta Mi Caballito - Ismael Rivera
TTITLE5=El Rincon - Pete "Conde" Rodriguez
TTITLE6=Oriente - Cheo Feliciano
TTITLE7=Quitate De La Via Perico . Ismael Rivera
TTITLE8=Vamonos De Fiesta - Pete "Conde" Rodriguez
TTITLE9=Salsa Y Bembe - Cheo Feliciano
TTITLE10=No Quiero Piedras En Mi Camino - Ismael Rivera
TTITLE11=Baila Conmigo - Pete Conde Rodriguez
TTITLE12=La Lapa - Cheo Feliciano
TTITLE13=Volare - Ismael Rivera
TTITLE14=Salsa - Pete "Conde" Rodriguez
EXTD=
EXTT0=
EXTT1=
EXTT2=
EXTT3=
EXTT4=
EXTT5=
EXTT6=
EXTT7=
EXTT8=
EXTT9=
EXTT10=
EXTT11=
EXTT12=
EXTT13=
EXTT14=
PLAYORDER=
